<?xml version="1.0" encoding="utf-8"?>
<!-- Generator: Adobe Illustrator 15.0.0, SVG Export Plug-In . SVG Version: 6.00 Build 0)  -->
<!DOCTYPE svg PUBLIC "-//W3C//DTD SVG 1.1//EN" "http://www.w3.org/Graphics/SVG/1.1/DTD/svg11.dtd">
<svg version="1.1" id="图层_1" xmlns="http://www.w3.org/2000/svg" xmlns:xlink="http://www.w3.org/1999/xlink" x="0px" y="0px"
	 width="131.375px" height="42px" viewBox="0 0 131.375 42" enable-background="new 0 0 131.375 42" xml:space="preserve">
<g>
	<path fill="#00B7D5" d="M122.993,11.704h-13.88V8.4h13.88V11.704z M109.113,2.98h13.88v3.21h-13.88V2.98z M121.955,13.951
		c2.453,0,3.588-1.019,3.588-2.775V9.627c0-0.492-0.17-0.718-0.529-1.021l-1.586-1.359l1.586-1.359
		c0.359-0.303,0.529-0.529,0.529-1.021v-1.36c0-1.755-1.135-2.775-3.588-2.775h-15.334v13.218H121.955z M96.18,11.704H82.3V8.4
		h13.88V11.704z M82.3,2.98h13.88v3.21H82.3V2.98z M95.141,13.951c2.454,0,3.588-1.019,3.588-2.775V9.627
		c0-0.492-0.17-0.718-0.529-1.021l-1.586-1.359l1.586-1.359c0.359-0.303,0.529-0.529,0.529-1.021v-1.36
		c0-1.755-1.134-2.775-3.588-2.775H79.807v13.218H95.141z M68.723,0.733v10.858H55.599V0.733h-2.493v10.198
		c0,1.869,1.133,3.02,3.38,3.02h11.349c2.246,0,3.379-1.151,3.379-3.02V0.733H68.723z M28.709,6.133v-5.4h-2.493v13.218h2.493V8.457
		h13.313v5.494h2.493V0.733h-2.493v5.4H28.709z M18.946,3.094V0.733H4.312c-2.247,0-3.379,1.152-3.379,3.021v7.177
		c0,1.869,1.132,3.02,3.379,3.02h14.635v-2.36H3.481V3.094H18.946z"/>
	<path fill="#00B7D5" d="M14.999,31.168c-0.722,2.04-1.765,3.654-3.082,4.993c2.635,1.105,5.058,2.294,6.715,3.337l-1.169,1.232
		c-1.594-1.063-4.037-2.338-6.756-3.506c-2.232,1.742-5.078,2.824-8.542,3.611c-0.148-0.338-0.593-0.955-0.893-1.274
		c3.252-0.595,5.929-1.528,7.99-2.953c-1.914-0.786-3.867-1.53-5.695-2.083l0.022-0.021c0.743-0.913,1.53-2.083,2.294-3.336H0.931
		v-1.359H6.69c0.701-1.209,1.296-2.401,1.762-3.485l1.466,0.319c-0.424,0.979-0.977,2.082-1.572,3.166h10.795v1.359H14.999z
		 M2.888,28.215H1.462v-4.186h7.863c-0.297-0.681-0.701-1.509-1.042-2.146l1.424-0.362c0.447,0.807,0.957,1.806,1.254,2.508h7.585
		v4.186H17.08v-2.867H2.888V28.215z M7.54,31.168c-0.595,1-1.19,1.913-1.764,2.699c1.552,0.511,3.146,1.083,4.718,1.721
		c1.274-1.169,2.252-2.635,2.932-4.42H7.54z"/>
	<path fill="#00B7D5" d="M40.056,36.955c0.438,0.241,0.922,0.746,1.713,1.273c1.428,0.943,3.206,1.098,5.731,1.098
		c2.68,0,5.842-0.175,7.907-0.396c-0.176,0.396-0.417,1.1-0.44,1.539c-1.449,0.088-5.534,0.219-7.509,0.219
		c-2.767,0-4.569-0.241-6.083-1.274c-0.856-0.592-1.582-1.427-2.043-1.427c-0.791,0-1.866,1.34-3.094,2.965l-0.989-1.295
		c1.206-1.383,2.37-2.438,3.36-2.789v-5.908h-3.119v-1.405h4.568V36.955z M38.937,26.677c-0.483-1.143-1.647-2.921-2.7-4.216
		l1.228-0.615c1.075,1.252,2.285,2.986,2.791,4.105L38.937,26.677z M53.627,37.196c-1.229-1.8-3.645-4.634-5.82-6.938
		c-0.833,3.008-2.393,5.488-5.444,7.114c-0.198-0.353-0.682-0.856-0.989-1.12c3.733-1.91,5.05-5.227,5.556-9.135h-5.468v-1.428
		h5.622c0.111-1.384,0.154-2.812,0.198-4.283h1.495c-0.045,1.472-0.11,2.899-0.221,4.283h6.412v1.428H48.4
		c-0.065,0.548-0.153,1.054-0.242,1.559c2.438,2.416,5.315,5.6,6.699,7.598L53.627,37.196z"/>
	<path fill="#00B7D5" d="M77.171,21.634c-0.636,1.558-1.403,3.116-2.259,4.563v14.878h-1.404V28.369
		c-0.791,1.12-1.625,2.108-2.479,2.986c-0.154-0.354-0.571-1.076-0.834-1.428c2.216-2.084,4.345-5.375,5.617-8.71L77.171,21.634z
		 M85.158,33.221c1.404,2.368,3.73,4.65,5.882,5.814c-0.329,0.262-0.79,0.788-1.032,1.162c-2.063-1.316-4.277-3.666-5.749-6.166
		v7.109h-1.47v-7.065c-1.559,2.522-3.861,4.827-6.078,6.077c-0.242-0.35-0.68-0.877-1.01-1.141c2.281-1.119,4.695-3.423,6.188-5.791
		h-5.597v-1.338h6.496v-2.854h-4.85v-6.845h11.299v6.845h-4.979v2.854h6.21v1.338H85.158z M79.344,27.713h8.427v-4.214h-8.427
		V27.713z"/>
	<path fill="#00B7D5" d="M112.229,22.746c-0.652,1.762-1.457,3.874-2.197,5.637c1.609,1.807,2.002,3.396,2.002,4.744
		c0,1.11-0.24,2.068-0.828,2.481c-0.303,0.218-0.694,0.348-1.109,0.392c-0.434,0.066-0.979,0.066-1.457,0.022
		c-0.021-0.349-0.153-0.915-0.393-1.284c0.521,0.043,0.959,0.043,1.329,0.02c0.259-0.02,0.521-0.063,0.675-0.193
		c0.346-0.24,0.479-0.871,0.479-1.547c0-1.219-0.414-2.721-2.024-4.483c0.675-1.61,1.351-3.504,1.807-4.962h-2.917v17.563h-1.306
		v-18.89h4.787l0.218-0.065L112.229,22.746z M119.543,21.68c-0.133,0.24-0.262,0.5-0.371,0.761c1.415,2.156,4.133,4.657,6.354,6.051
		c-0.285,0.304-0.631,0.892-0.782,1.262c-2.156-1.502-4.659-3.896-6.27-6.137c-1.567,2.546-3.721,4.744-5.918,6.289
		c-0.174-0.283-0.631-0.891-0.894-1.175c2.699-1.675,5.202-4.418,6.616-7.507L119.543,21.68z M124.285,31.386
		c-0.936,2.372-2.24,5.376-3.393,7.444h4.155v1.305h-12.755V38.83h7.336c1.174-2.068,2.589-5.441,3.373-7.791L124.285,31.386z
		 M114.668,31.496c0.675,1.631,1.283,3.807,1.5,5.199l-1.197,0.35c-0.195-1.459-0.805-3.612-1.435-5.246L114.668,31.496z
		 M122.066,29.361h-7.271v-1.261h7.271V29.361z M118.563,36.412c-0.109-1.414-0.523-3.567-0.893-5.222l1.153-0.175
		c0.415,1.676,0.806,3.787,0.936,5.201L118.563,36.412z"/>
	<path fill="#00B7D5" d="M129.721,0.945c0.219,0.092,0.407,0.219,0.568,0.382c0.161,0.162,0.289,0.352,0.379,0.572
		c0.092,0.218,0.139,0.453,0.139,0.705c0,0.254-0.047,0.49-0.139,0.707c-0.09,0.217-0.218,0.407-0.379,0.567
		s-0.35,0.286-0.568,0.379c-0.22,0.092-0.456,0.136-0.709,0.136c-0.256,0-0.492-0.044-0.711-0.136
		c-0.219-0.093-0.408-0.218-0.568-0.379s-0.287-0.35-0.38-0.567c-0.091-0.216-0.138-0.452-0.138-0.707
		c0-0.252,0.047-0.487,0.138-0.705c0.093-0.22,0.22-0.41,0.38-0.572c0.16-0.163,0.35-0.29,0.568-0.382
		c0.219-0.09,0.455-0.137,0.711-0.137C129.265,0.808,129.501,0.855,129.721,0.945 M128.404,1.185
		c-0.185,0.079-0.345,0.189-0.479,0.328c-0.135,0.138-0.241,0.301-0.316,0.488c-0.076,0.186-0.114,0.388-0.114,0.603
		c0,0.216,0.038,0.417,0.114,0.603c0.075,0.187,0.182,0.35,0.316,0.487c0.134,0.14,0.294,0.25,0.479,0.329
		c0.186,0.081,0.387,0.121,0.607,0.121c0.214,0,0.414-0.04,0.6-0.121c0.186-0.08,0.346-0.189,0.48-0.329
		c0.135-0.137,0.242-0.3,0.318-0.487c0.076-0.186,0.116-0.386,0.116-0.603c0-0.215-0.04-0.417-0.116-0.603
		c-0.076-0.187-0.184-0.35-0.318-0.488c-0.135-0.139-0.295-0.249-0.48-0.328c-0.186-0.082-0.386-0.12-0.6-0.12
		C128.791,1.065,128.59,1.104,128.404,1.185 M128.358,3.641V1.565h0.798c0.234,0,0.405,0.049,0.514,0.147
		c0.107,0.099,0.161,0.241,0.161,0.429c0,0.089-0.013,0.168-0.042,0.236c-0.027,0.065-0.063,0.124-0.112,0.169
		c-0.048,0.047-0.104,0.085-0.166,0.112c-0.063,0.026-0.13,0.047-0.2,0.06l0.617,0.922h-0.299l-0.585-0.922h-0.429v0.922H128.358z
		 M129.182,2.495c0.076-0.004,0.144-0.02,0.201-0.041c0.057-0.023,0.104-0.06,0.139-0.109c0.036-0.05,0.054-0.119,0.054-0.204
		c0-0.074-0.014-0.134-0.04-0.179c-0.027-0.044-0.064-0.081-0.111-0.11c-0.047-0.026-0.099-0.044-0.157-0.054
		c-0.059-0.01-0.119-0.015-0.184-0.015h-0.468v0.72h0.338C129.029,2.503,129.107,2.5,129.182,2.495"/>
	<path fill="#00B7D5" d="M129.721,21.354c0.219,0.092,0.407,0.219,0.568,0.382c0.161,0.163,0.289,0.352,0.379,0.572
		c0.092,0.218,0.139,0.453,0.139,0.703c0,0.256-0.047,0.491-0.139,0.709c-0.09,0.216-0.218,0.406-0.379,0.566
		s-0.35,0.285-0.568,0.377c-0.22,0.094-0.456,0.138-0.709,0.138c-0.256,0-0.492-0.044-0.711-0.138
		c-0.219-0.092-0.408-0.217-0.568-0.377s-0.287-0.351-0.38-0.566c-0.091-0.218-0.138-0.453-0.138-0.709
		c0-0.25,0.047-0.485,0.138-0.703c0.093-0.22,0.22-0.41,0.38-0.572c0.16-0.163,0.35-0.29,0.568-0.382
		c0.219-0.09,0.455-0.137,0.711-0.137C129.265,21.217,129.501,21.264,129.721,21.354 M128.404,21.595
		c-0.185,0.079-0.345,0.188-0.479,0.328c-0.135,0.138-0.241,0.301-0.316,0.487c-0.076,0.187-0.114,0.388-0.114,0.603
		c0,0.218,0.038,0.418,0.114,0.604c0.075,0.187,0.182,0.351,0.316,0.486c0.134,0.141,0.294,0.25,0.479,0.33
		c0.186,0.08,0.387,0.121,0.607,0.121c0.214,0,0.414-0.041,0.6-0.121s0.346-0.189,0.48-0.33c0.135-0.136,0.242-0.3,0.318-0.486
		c0.076-0.186,0.116-0.386,0.116-0.604c0-0.215-0.04-0.416-0.116-0.603c-0.076-0.186-0.184-0.349-0.318-0.487
		c-0.135-0.139-0.295-0.249-0.48-0.328c-0.186-0.082-0.386-0.121-0.6-0.121C128.791,21.474,128.59,21.513,128.404,21.595
		 M128.358,24.051v-2.076h0.798c0.234,0,0.405,0.049,0.514,0.147c0.107,0.099,0.161,0.241,0.161,0.429
		c0,0.088-0.013,0.168-0.042,0.235c-0.027,0.066-0.063,0.124-0.112,0.171c-0.048,0.047-0.104,0.084-0.166,0.111
		c-0.063,0.026-0.13,0.047-0.2,0.061l0.617,0.922h-0.299l-0.585-0.922h-0.429v0.922H128.358z M129.182,22.904
		c0.076-0.004,0.144-0.02,0.201-0.041c0.057-0.023,0.104-0.06,0.139-0.109c0.036-0.049,0.054-0.118,0.054-0.203
		c0-0.074-0.014-0.135-0.04-0.18c-0.027-0.045-0.064-0.08-0.111-0.109c-0.047-0.026-0.099-0.045-0.157-0.055
		c-0.059-0.012-0.119-0.016-0.184-0.016h-0.468v0.721h0.338C129.029,22.912,129.107,22.908,129.182,22.904"/>
</g>
</svg>
